# xmcd
#
# Track frame offsets: 
#        150
#        9020
#        13465
#        17940
#        23527
#        29349
#        36819
#        42721
#        46051
#        49361
#        57966
#        65209
#        69995
#        74324
#        79079
#        83099
#        93518
#        96176
#        100115
#        106797
#        110732
#        115958
#        120586
#        124536
#        128523
#        132490
#        136417
#        140353
#        142957
#        146826
#        153464
#        156127
#        160081
#        164026
#        170758
#        177432
#        181429
#        185560
#        189690
#        196072
#        200290
#        207574
#        217950
#        224616
#        229058
#        234980
#        242403
#        251161
#        257016
#        261371
#        264307
#        268721
#        271620
#        276856
#        280752
#        285901
#        288577
#        293832
#        301041
#        306811
#        312577
#        316901
#
# Disc length: 4406 seconds
#
# Revision: 0
# Processed by: cddbd v1.5.2PL0 Copyright (c) Steve Scherf et al.
# Submitted via: ExactAudioCopy v0.95b4
#
DISCID=9c11343e
DTITLE=Various Artist - Deebuzz Soundsystem - Reggaeneration
DYEAR=2003
DGENRE=Dance Hall
TTITLE0=Seeed/Music Monks (Special)
TTITLE1=Tanya Stephens/Lock Down
TTITLE2=Degree/Miss Georgeous
TTITLE3=Busta Rhymes and Sean Paul/We Make It Clap
TTITLE4=Capleton/Clappin
TTITLE5=Alozade, Hollow Point and Vegas/Unda Mi Sensi
TTITLE6=Irish Man/Part Time Lover
TTITLE7=Major Christie/Forever
TTITLE8=T.O.K. and Beenie Man/Bring It On
TTITLE9=Beenie Man/Gal Dem Sugar (Special)
TTITLE10=Monster Twins/One o'clock
TTITLE11=Danny English and Egg Nogg/Party Time
TTITLE12=Bounty Killer/Murderah (Special)
TTITLE13=Degree/Inna
TTITLE14=Crissy D/Make It Feel Good
TTITLE15=Sean Paul/Get Busy
TTITLE16=Ce'Cile/Push Up (Special)
TTITLE17=Wayne Marshall/Check Yourself
TTITLE18=Sean Paul/Ever Blazin
TTITLE19=T.O.K./That Girl
TTITLE20=Danny English and Egg Nogg/Wine Baby Wine
TTITLE21=Bounty Killer/Raging Storm
TTITLE22=Bounty Killer/Try Again
TTITLE23=Degree/Dancehallreggae
TTITLE24=Elephant Man/Good Gal
TTITLE25=Danny English and Egg Nogg/The One
TTITLE26=Lukie D/Fly Away
TTITLE27=Ninja Kid/Floss
TTITLE28=Tanya Stephens/Tired A
TTITLE29=Beenie Man/Red Red Red
TTITLE30=Mr Vegas and Ninja Kid/Tall Up
TTITLE31=Ward 21/Roll Up
TTITLE32=Future Troubles/Drunken Master
TTITLE33=Bounty Killer/Wave Dem
TTITLE34=Degree/Man Shortage
TTITLE35=TantoMetro and Devonte/Let Me Hear U
TTITLE36=Crissy D/Make A Woman Fly
TTITLE37=Professor Nuts/Fish and Festival
TTITLE38=T.O.K./Girls Girls
TTITLE39=Ward 21/Style
TTITLE40=Sean Paul/Concrete (Special)
TTITLE41=T.O.K./Shing Star
TTITLE42=Tanya Stephens/Need U Tonight
TTITLE43=Ce'cile/Rude Bwoy Thug Life
TTITLE44=Ce'cile/Bad Gal Bad Sound
TTITLE45=Degree/Right Now
TTITLE46=T.O.K./Pengeleng
TTITLE47=Nosliw/Reggaeneration 7er (Special)
TTITLE48=Elephant Man/Online
TTITLE49=Elephant Man/War Beggar
TTITLE50=Bounty Killer/W.A.R.R.
TTITLE51=Singer J/Bag of Kiki
TTITLE52=Busta Rhymes and Sean Paul/Di Light Rmx
TTITLE53=Bounty Killer/Mystrey (Special)
TTITLE54=Wayne Marshall/The Whole World
TTITLE55=Michael Night/Stop
TTITLE56=Michel/Slow Down
TTITLE57=General Levy/Shake
TTITLE58=Ward 21/Padlock
TTITLE59=T.O.K./War Dem Want
TTITLE60=Tanya Stephens/Soft Inside
TTITLE61=Stephen Marley and Capleton/Sunshine Girl
EXTD=
EXTT0=
EXTT1=
EXTT2=
EXTT3=
EXTT4=
EXTT5=
EXTT6=
EXTT7=
EXTT8=
EXTT9=
EXTT10=
EXTT11=
EXTT12=
EXTT13=
EXTT14=
EXTT15=
EXTT16=
EXTT17=
EXTT18=
EXTT19=
EXTT20=
EXTT21=
EXTT22=
EXTT23=
EXTT24=
EXTT25=
EXTT26=
EXTT27=
EXTT28=
EXTT29=
EXTT30=
EXTT31=
EXTT32=
EXTT33=
EXTT34=
EXTT35=
EXTT36=
EXTT37=
EXTT38=
EXTT39=
EXTT40=
EXTT41=
EXTT42=
EXTT43=
EXTT44=
EXTT45=
EXTT46=
EXTT47=
EXTT48=
EXTT49=
EXTT50=
EXTT51=
EXTT52=
EXTT53=
EXTT54=
EXTT55=
EXTT56=
EXTT57=
EXTT58=
EXTT59=
EXTT60=
EXTT61=
PLAYORDER=
